<mxfile host="app.diagrams.net" modified="2022-07-20T08:39:29.013Z" agent="5.0 (Windows NT 10.0; Win64; x64) AppleWebKit/537.36 (KHTML, like Gecko) Chrome/103.0.0.0 Safari/537.36" etag="D-N95QTr7_8-jYW38fv4" version="20.1.2" type="github" pages="2">
  <diagram id="6a731a19-8d31-9384-78a2-239565b7b9f0" name="Page-1">
    <mxGraphModel dx="1490" dy="902" grid="1" gridSize="10" guides="1" tooltips="1" connect="1" arrows="1" fold="1" page="1" pageScale="1" pageWidth="1169" pageHeight="827" background="none" math="0" shadow="0">
      <root>
        <mxCell id="0" />
        <mxCell id="1" parent="0" />
        <mxCell id="1746" value="" style="edgeStyle=none;rounded=0;jumpStyle=none;html=1;shadow=0;labelBackgroundColor=none;startArrow=none;startFill=0;endArrow=classic;endFill=1;jettySize=auto;orthogonalLoop=1;strokeColor=#2F5B7C;strokeWidth=3;fontFamily=Helvetica;fontSize=16;fontColor=#23445D;spacing=5;" parent="1" source="1749" target="1771" edge="1">
          <mxGeometry relative="1" as="geometry" />
        </mxCell>
        <mxCell id="1747" value="" style="edgeStyle=none;rounded=0;jumpStyle=none;html=1;shadow=0;labelBackgroundColor=none;startArrow=none;startFill=0;endArrow=classic;endFill=1;jettySize=auto;orthogonalLoop=1;strokeColor=#2F5B7C;strokeWidth=3;fontFamily=Helvetica;fontSize=16;fontColor=#23445D;spacing=5;" parent="1" source="1749" edge="1">
          <mxGeometry relative="1" as="geometry">
            <mxPoint x="570" y="354" as="targetPoint" />
          </mxGeometry>
        </mxCell>
        <mxCell id="1748" value="" style="edgeStyle=none;rounded=0;jumpStyle=none;html=1;shadow=0;labelBackgroundColor=none;startArrow=none;startFill=0;endArrow=classic;endFill=1;jettySize=auto;orthogonalLoop=1;strokeColor=#2F5B7C;strokeWidth=3;fontFamily=Helvetica;fontSize=16;fontColor=#23445D;spacing=5;" parent="1" source="1749" target="1753" edge="1">
          <mxGeometry relative="1" as="geometry" />
        </mxCell>
        <mxCell id="1749" value="Infectious diseases" style="rounded=1;whiteSpace=wrap;html=1;shadow=0;labelBackgroundColor=none;strokeColor=none;strokeWidth=3;fillColor=#2F5B7C;fontFamily=Helvetica;fontSize=16;fontColor=#FFFFFF;align=center;fontStyle=1;spacing=5;arcSize=7;perimeterSpacing=2;" parent="1" vertex="1">
          <mxGeometry x="495" y="166" width="150" height="70" as="geometry" />
        </mxCell>
        <mxCell id="1750" value="" style="edgeStyle=none;rounded=1;jumpStyle=none;html=1;shadow=0;labelBackgroundColor=none;startArrow=none;startFill=0;jettySize=auto;orthogonalLoop=1;strokeColor=#E85642;strokeWidth=3;fontFamily=Helvetica;fontSize=14;fontColor=#FFFFFF;spacing=5;fontStyle=1;fillColor=#b0e3e6;" parent="1" source="1753" target="1756" edge="1">
          <mxGeometry relative="1" as="geometry" />
        </mxCell>
        <mxCell id="1751" value="" style="edgeStyle=none;rounded=1;jumpStyle=none;html=1;shadow=0;labelBackgroundColor=none;startArrow=none;startFill=0;jettySize=auto;orthogonalLoop=1;strokeColor=#E85642;strokeWidth=3;fontFamily=Helvetica;fontSize=14;fontColor=#FFFFFF;spacing=5;fontStyle=1;fillColor=#b0e3e6;" parent="1" source="1753" edge="1">
          <mxGeometry relative="1" as="geometry">
            <mxPoint x="166" y="201" as="targetPoint" />
          </mxGeometry>
        </mxCell>
        <mxCell id="1752" value="" style="edgeStyle=none;rounded=1;jumpStyle=none;html=1;shadow=0;labelBackgroundColor=none;startArrow=none;startFill=0;jettySize=auto;orthogonalLoop=1;strokeColor=#E85642;strokeWidth=3;fontFamily=Helvetica;fontSize=14;fontColor=#FFFFFF;spacing=5;fontStyle=1;fillColor=#b0e3e6;" parent="1" source="1753" target="1754" edge="1">
          <mxGeometry relative="1" as="geometry" />
        </mxCell>
        <mxCell id="1753" value="Pathogens" style="rounded=1;whiteSpace=wrap;html=1;shadow=0;labelBackgroundColor=none;strokeColor=none;strokeWidth=3;fillColor=#e85642;fontFamily=Helvetica;fontSize=14;fontColor=#FFFFFF;align=center;spacing=5;fontStyle=1;arcSize=7;perimeterSpacing=2;" parent="1" vertex="1">
          <mxGeometry x="290" y="350" width="150" height="60" as="geometry" />
        </mxCell>
        <mxCell id="1754" value="Theories" style="rounded=1;whiteSpace=wrap;html=1;shadow=0;labelBackgroundColor=none;strokeColor=none;strokeWidth=3;fillColor=#f08e81;fontFamily=Helvetica;fontSize=14;fontColor=#FFFFFF;align=center;spacing=5;fontStyle=0;arcSize=7;perimeterSpacing=2;" parent="1" vertex="1">
          <mxGeometry x="65" y="290" width="150" height="60" as="geometry" />
        </mxCell>
        <mxCell id="1755" value="Appeal" style="rounded=1;whiteSpace=wrap;html=1;shadow=0;labelBackgroundColor=none;strokeColor=none;strokeWidth=3;fillColor=#f08e81;fontFamily=Helvetica;fontSize=14;fontColor=#FFFFFF;align=center;spacing=5;fontStyle=0;arcSize=7;perimeterSpacing=2;" parent="1" vertex="1">
          <mxGeometry x="14" y="385.5" width="150" height="60" as="geometry" />
        </mxCell>
        <mxCell id="1756" value="Layout" style="rounded=1;whiteSpace=wrap;html=1;shadow=0;labelBackgroundColor=none;strokeColor=none;strokeWidth=3;fillColor=#f08e81;fontFamily=Helvetica;fontSize=14;fontColor=#FFFFFF;align=center;spacing=5;fontStyle=0;arcSize=7;perimeterSpacing=2;" parent="1" vertex="1">
          <mxGeometry x="65" y="40" width="150" height="60" as="geometry" />
        </mxCell>
        <mxCell id="1771" value="Vectors" style="rounded=1;whiteSpace=wrap;html=1;shadow=0;labelBackgroundColor=none;strokeColor=none;strokeWidth=3;fillColor=#12aab5;fontFamily=Helvetica;fontSize=14;fontColor=#FFFFFF;align=center;spacing=5;fontStyle=1;arcSize=7;perimeterSpacing=2;" parent="1" vertex="1">
          <mxGeometry x="720" y="349.9999999999999" width="150" height="60" as="geometry" />
        </mxCell>
        <mxCell id="1772" value="Events" style="rounded=1;whiteSpace=wrap;html=1;shadow=0;labelBackgroundColor=none;strokeColor=none;strokeWidth=3;fillColor=#61c6ce;fontFamily=Helvetica;fontSize=14;fontColor=#FFFFFF;align=center;spacing=5;fontStyle=0;arcSize=7;perimeterSpacing=2;" parent="1" vertex="1">
          <mxGeometry x="530" y="490" width="150" height="60" as="geometry" />
        </mxCell>
        <mxCell id="1773" value="" style="edgeStyle=none;rounded=1;jumpStyle=none;html=1;shadow=0;labelBackgroundColor=none;startArrow=none;startFill=0;jettySize=auto;orthogonalLoop=1;strokeColor=#12AAB5;strokeWidth=3;fontFamily=Helvetica;fontSize=14;fontColor=#FFFFFF;spacing=5;fontStyle=1;fillColor=#b0e3e6;" parent="1" source="1771" target="1772" edge="1">
          <mxGeometry relative="1" as="geometry" />
        </mxCell>
        <mxCell id="1774" value="Media" style="rounded=1;whiteSpace=wrap;html=1;shadow=0;labelBackgroundColor=none;strokeColor=none;strokeWidth=3;fillColor=#61c6ce;fontFamily=Helvetica;fontSize=14;fontColor=#FFFFFF;align=center;spacing=5;fontStyle=0;arcSize=7;perimeterSpacing=2;" parent="1" vertex="1">
          <mxGeometry x="690" y="570" width="150" height="60" as="geometry" />
        </mxCell>
        <mxCell id="1775" value="" style="edgeStyle=none;rounded=1;jumpStyle=none;html=1;shadow=0;labelBackgroundColor=none;startArrow=none;startFill=0;jettySize=auto;orthogonalLoop=1;strokeColor=#12AAB5;strokeWidth=3;fontFamily=Helvetica;fontSize=14;fontColor=#FFFFFF;spacing=5;fontStyle=1;fillColor=#b0e3e6;" parent="1" source="1771" target="1774" edge="1">
          <mxGeometry relative="1" as="geometry" />
        </mxCell>
        <mxCell id="1776" value="Sponsoring" style="rounded=1;whiteSpace=wrap;html=1;shadow=0;labelBackgroundColor=none;strokeColor=none;strokeWidth=3;fillColor=#61c6ce;fontFamily=Helvetica;fontSize=14;fontColor=#FFFFFF;align=center;spacing=5;fontStyle=0;arcSize=7;perimeterSpacing=2;" parent="1" vertex="1">
          <mxGeometry x="930" y="445.5" width="150" height="60" as="geometry" />
        </mxCell>
        <mxCell id="1777" value="" style="edgeStyle=none;rounded=1;jumpStyle=none;html=1;shadow=0;labelBackgroundColor=none;startArrow=none;startFill=0;jettySize=auto;orthogonalLoop=1;strokeColor=#12AAB5;strokeWidth=3;fontFamily=Helvetica;fontSize=14;fontColor=#FFFFFF;spacing=5;fontStyle=1;fillColor=#b0e3e6;" parent="1" source="1771" target="1776" edge="1">
          <mxGeometry relative="1" as="geometry" />
        </mxCell>
        <mxCell id="1778" value="PR" style="rounded=1;whiteSpace=wrap;html=1;shadow=0;labelBackgroundColor=none;strokeColor=none;strokeWidth=3;fillColor=#61c6ce;fontFamily=Helvetica;fontSize=14;fontColor=#FFFFFF;align=center;spacing=5;fontStyle=0;arcSize=7;perimeterSpacing=2;" parent="1" vertex="1">
          <mxGeometry x="990" y="310" width="150" height="60" as="geometry" />
        </mxCell>
        <mxCell id="1779" value="" style="edgeStyle=none;rounded=1;jumpStyle=none;html=1;shadow=0;labelBackgroundColor=none;startArrow=none;startFill=0;jettySize=auto;orthogonalLoop=1;strokeColor=#12AAB5;strokeWidth=3;fontFamily=Helvetica;fontSize=14;fontColor=#FFFFFF;spacing=5;fontStyle=1;fillColor=#b0e3e6;" parent="1" source="1771" target="1778" edge="1">
          <mxGeometry relative="1" as="geometry" />
        </mxCell>
      </root>
    </mxGraphModel>
  </diagram>
  <diagram id="dlOCUUG88H-9y8-VTbup" name="Page-2">
    <mxGraphModel dx="745" dy="451" grid="1" gridSize="10" guides="1" tooltips="1" connect="1" arrows="1" fold="1" page="1" pageScale="1" pageWidth="850" pageHeight="1100" math="0" shadow="0">
      <root>
        <mxCell id="0" />
        <mxCell id="1" parent="0" />
      </root>
    </mxGraphModel>
  </diagram>
</mxfile>
